# xmcd
#
# Track frame offsets:
#	150
#	17270
#	33500
#	48688
#	62996
#	74992
#	88959
#	106146
#	122377
#	137631
#	151924
#	163778
#
# Disc length: 2369
#
# Revision: 2
# Processed by: cddbd v1.5.2PL0 Copyright (c) Steve Scherf et al.
# Submitted via: kJams Pro (development) 1.0patch45.11
#
DISCID=a5093f0c
DTITLE=George Strait - CB 20079
DYEAR=1985
DGENRE=Country
TTITLE0=George Strait - Vocals - Write This Down
TTITLE1=George Strait - Vocals - Look At You
TTITLE2=George Strait - Vocals - Peace Of Mind
TTITLE3=George Strait - Vocals - What Do You Say To That
TTITLE4=George Strait - Vocals - One Of You
TTITLE5=George Strait - Vocals - Always The Same
TTITLE6=George Strait - Write This Down
TTITLE7=George Strait - Look At You
TTITLE8=George Strait - Peace Of Mind
TTITLE9=George Strait - What Do You Say To That
TTITLE10=George Strait - One Of You
TTITLE11=George Strait - Always Never The Same
EXTD=
EXTT0=
EXTT1=
EXTT2=
EXTT3=
EXTT4=
EXTT5=
EXTT6=
EXTT7=
EXTT8=
EXTT9=
EXTT10=
EXTT11=
PLAYORDER=
